<svg width="1200" height="630" viewBox="0 0 1200 630" xmlns="http://www.w3.org/2000/svg">
  <defs>
    <style>
      .display { font-family: 'Space Grotesk', 'Arial', sans-serif; }
      .mono { font-family: 'IBM Plex Mono', 'Courier New', monospace; }
    </style>
  </defs>
  <rect width="1200" height="630" fill="#10131a" />
  <g stroke="#262b36" stroke-width="1" opacity="0.8">
    <line x1="960" y1="60" x2="1080" y2="140" />
    <line x1="1080" y1="140" x2="1150" y2="90" />
    <line x1="1080" y1="140" x2="1040" y2="230" />
    <line x1="1040" y1="230" x2="1130" y2="280" />
    <line x1="960" y1="60" x2="900" y2="160" />
    <line x1="900" y1="160" x2="1040" y2="230" />
  </g>
  <g fill="#3fbba4">
    <circle cx="960" cy="60" r="3.5" />
    <circle cx="1080" cy="140" r="3.5" />
    <circle cx="1150" cy="90" r="3" />
    <circle cx="1040" cy="230" r="3.5" />
    <circle cx="1130" cy="280" r="3" />
    <circle cx="900" cy="160" r="3" />
  </g>
  <text x="90" y="120" class="mono" font-size="20" fill="#3fbba4" letter-spacing="1">// disponible para nuevos proyectos</text>
  <text x="90" y="260" class="display" font-size="84" font-weight="700" fill="#edebe4">Marcos Soria</text>
  <text x="90" y="340" class="display" font-size="40" font-weight="500" fill="#99a0ac">Desarrollador Frontend</text>
  <text x="90" y="410" class="display" font-size="30" font-weight="400" fill="#edebe4">Construyo interfaces con <tspan fill="#3fbba4" font-weight="600">lógica clara</tspan>.</text>
  <g class="mono" font-size="17" fill="#99a0ac">
    <rect x="90" y="470" width="128" height="36" rx="8" fill="#171b24" stroke="#262b36" />
    <text x="112" y="493">JavaScript</text>
    <rect x="230" y="470" width="76" height="36" rx="8" fill="#171b24" stroke="#262b36" />
    <text x="252" y="493">CSS</text>
    <rect x="318" y="470" width="90" height="36" rx="8" fill="#171b24" stroke="#262b36" />
    <text x="340" y="493">HTML5</text>
  </g>
  <text x="90" y="580" class="display" font-size="26" font-weight="700" fill="#edebe4">ms<tspan fill="#e0b84d">.</tspan></text>
</svg>
